<svg xmlns="http://www.w3.org/2000/svg" xmlns:svg="http://www.w3.org/2000/svg" xmlns:xlink="http://www.w3.org/1999/xlink" id="svg4" width="1280" height="640" preserveAspectRatio="xMidYMid" version="1.1" viewBox="0 0 131.072 65.528"><metadata id="metadata10"/><defs id="defs8"><linearGradient id="linearGradient8385"><stop offset="0" style="stop-color:#000;stop-opacity:1" id="stop8387"/><stop offset="1" style="stop-color:#fff;stop-opacity:1" id="stop8389"/></linearGradient><linearGradient id="linearGradient3002" x1="-553.27" x2="-666.116" y1="525.908" y2="413.045" gradientTransform="matrix(0.99884,0,0,0.998699,689.00774,-388.84375)" gradientUnits="userSpaceOnUse" xlink:href="#linearGradient8385"/><linearGradient id="linearGradient3005" x1="-666.117" x2="-553.27" y1="413.045" y2="525.908" gradientTransform="matrix(0.99884,0,0,0.998699,689.00774,-388.84375)" gradientUnits="userSpaceOnUse" xlink:href="#linearGradient8385"/></defs><circle style="opacity:1;fill:#00dfc3;fill-opacity:1;stroke:#000;stroke-width:.1308244;stroke-linecap:round;stroke-linejoin:round;stroke-miterlimit:4;stroke-dasharray:none;stroke-dashoffset:0;stroke-opacity:1;paint-order:normal" id="path846-5-6-0" cx="107.254" cy="11.679" r="7.022"/><rect style="opacity:1;fill:#1aa4e5;fill-opacity:1;stroke:#000;stroke-width:.09679542;stroke-linecap:round;stroke-linejoin:round;stroke-miterlimit:4;stroke-dasharray:none;stroke-dashoffset:0;stroke-opacity:1;paint-order:normal" id="rect838-3-2" width="8.712" height="8.712" x="52.378" y="29.704"/><circle style="opacity:1;fill:#00dfc3;fill-opacity:1;stroke:#000;stroke-width:.1308244;stroke-linecap:round;stroke-linejoin:round;stroke-miterlimit:4;stroke-dasharray:none;stroke-dashoffset:0;stroke-opacity:1;paint-order:normal" id="path846-5" cx="46.436" cy="20.767" r="7.022"/><rect style="opacity:1;fill:#00dfc3;fill-opacity:1;stroke:#000;stroke-width:.13162708;stroke-linecap:round;stroke-linejoin:round;stroke-miterlimit:4;stroke-dasharray:none;stroke-dashoffset:0;stroke-opacity:1;paint-order:normal" id="rect836" width="21.06" height="21.06" x="4.74" y="20.227"/><path style="opacity:1;fill:#00dfc3;fill-opacity:1;stroke:#000;stroke-width:.13162708;stroke-linecap:round;stroke-linejoin:round;stroke-miterlimit:4;stroke-dasharray:none;stroke-dashoffset:0;stroke-opacity:1;paint-order:normal" id="path844" d="M 54.196594,47.584051 A 11.188302,11.188302 0 0 1 45.1593,60.418826 11.188302,11.188302 0 0 1 32.183463,51.585265 11.188302,11.188302 0 0 1 40.811088,38.4716 11.188302,11.188302 0 0 1 54.059314,46.89114"/><circle style="opacity:1;fill:#1aa4e5;fill-opacity:1;stroke:#000;stroke-width:.13162708;stroke-linecap:round;stroke-linejoin:round;stroke-miterlimit:4;stroke-dasharray:none;stroke-dashoffset:0;stroke-opacity:1;paint-order:normal" id="path850" cx="21.617" cy="45.1" r="7.898"/><rect style="opacity:1;fill:#00dfc3;fill-opacity:1;stroke:#000;stroke-width:.14314619;stroke-linecap:round;stroke-linejoin:round;stroke-miterlimit:4;stroke-dasharray:none;stroke-dashoffset:0;stroke-opacity:1;paint-order:normal" id="rect842" width="14.315" height="14.315" x="5.8" y="47.153"/><rect style="opacity:1;fill:#1aa4e5;fill-opacity:1;stroke:#000;stroke-width:.10655854;stroke-linecap:round;stroke-linejoin:round;stroke-miterlimit:4;stroke-dasharray:none;stroke-dashoffset:0;stroke-opacity:1;paint-order:normal" id="rect838-3" width="9.59" height="9.59" x="49.792" y="51.156"/><ellipse style="opacity:1;fill:#1aa4e5;fill-opacity:1;stroke:#000;stroke-width:.0838074;stroke-linecap:round;stroke-linejoin:round;stroke-miterlimit:4;stroke-dasharray:none;stroke-dashoffset:0;stroke-opacity:1;paint-order:normal" id="path848" cx="15.555" cy="21.517" rx="6.266" ry="6.168"/><rect style="opacity:1;fill:#1aa4e5;fill-opacity:1;stroke:#000;stroke-width:.13162708;stroke-linecap:round;stroke-linejoin:round;stroke-miterlimit:4;stroke-dasharray:none;stroke-dashoffset:0;stroke-opacity:1;paint-order:normal" id="rect838" width="11.846" height="11.846" x="36.732" y="23.734"/><circle style="opacity:1;fill:#00dfc3;fill-opacity:1;stroke:#000;stroke-width:.09354054;stroke-linecap:round;stroke-linejoin:round;stroke-miterlimit:4;stroke-dasharray:none;stroke-dashoffset:0;stroke-opacity:1;paint-order:normal" id="path846" cx="50.395" cy="33.343" r="3.742"/><rect style="opacity:1;fill:#c5b700;fill-opacity:1;stroke:#000;stroke-width:.10789933;stroke-linecap:round;stroke-linejoin:round;stroke-miterlimit:4;stroke-dasharray:none;stroke-dashoffset:0;stroke-opacity:1;paint-order:normal" id="rect840" width="18.285" height="18.052" x="22.543" y="26.225"/><path style="fill:#000;fill-opacity:1;fill-rule:evenodd;stroke:#000;stroke-width:.09955429px;stroke-linecap:butt;stroke-linejoin:miter;stroke-opacity:1" id="path922" d="m 23.846555,2.4871269 -1.905532,0.03889 0.388885,0.9916537 1.555535,0.4083286 z m 12.520703,1.91992 c -0.678259,-0.01853 -1.409871,0.2870802 -2.059724,1.0355978 l -0.116666,-0.8555444 -1.944419,-0.03889 0.08011,7.5124607 1.91214,-0.007 -0.0089,-2.7610759 c 2.46763,2.1190319 4.671445,0.017067 4.499582,-2.0610855 0.03321,-1.5722928 -1.067225,-2.7890945 -2.362082,-2.8244644 z m 7.831151,0.066888 c -0.901254,0.022705 -1.751365,0.4527831 -1.99653,0.7742684 l 0.03889,-0.6999911 -1.98331,0.03889 -0.03889,7.4665728 2.022198,-0.116664 -0.155554,-2.6833014 c 2.756979,2.3490134 4.747965,-0.464131 4.666608,-1.749978 C 46.600507,5.0890023 45.357164,4.4447432 44.198409,4.4739365 Z m -15.681746,0.00622 c -2.549661,0.034039 -3.145135,1.8863914 -3.163767,2.7142159 -0.150115,3.2605972 4.284589,3.3927262 5.271712,2.6366338 L 30.604195,8.5194952 C 27.960737,9.633405 27.402446,8.26785 27.291486,7.3207594 27.216311,6.4996227 28.417938,4.8461359 30.588055,6.1564408 l 0.02294,-1.3745102 C 29.797548,4.5611575 29.105046,4.4723026 28.516663,4.4801564 Z m -18.319935,0.068061 -1.711089,0.07778 -0.894433,3.6166218 -1.011099,-3.6166218 -1.905531,-0.03889 1.555536,5.4054873 2.138862,-0.03889 1.011098,-3.5777319 1.011097,3.6555097 2.061086,-0.07778 1.672199,-5.2888215 -1.90553,-0.03889 -0.972209,3.5777333 z m 7.630097,0.020415 c -1.665207,-0.016068 -2.473827,0.4552402 -2.691271,1.262901 -0.490844,2.7675755 3.750794,1.4957963 3.616622,2.7221877 -0.07223,0.2997028 -0.41802,0.9021368 -3.616622,0 l -0.03889,1.2055406 c 2.427959,0.8763398 5.220233,0.4202228 5.444375,-1.0499875 0.215635,-2.7859365 -4.151646,-1.8066216 -3.733285,-2.6055224 0.226297,-0.7634254 1.642269,-0.5071301 3.305514,-0.03889 l 0.07778,-1.2444289 C 19.26125,4.65586 18.47843,4.5749147 17.826825,4.5686281 Z m 4.153087,0.096249 0.03889,5.4054881 c 0.02801,0.792819 -0.469511,1.060098 -1.322206,0.972209 v 1.049988 c 1.437015,0.16154 2.819661,0.209167 3.188849,-1.866643 l 0.03889,-5.5610421 z m 21.602893,1.0581529 c 0.409518,0.021812 1.113978,-0.056834 1.09996,1.8423389 -0.04912,1.4134402 -0.856593,1.2716256 -1.402445,1.2924048 -0.844751,-0.1690705 -0.979219,-0.5046926 -1.017387,-1.5399297 0.02672,-1.0733122 0.593081,-1.5823287 1.319872,-1.594814 z m -8.125924,0.00469 c 0.409517,0.021812 1.361502,-0.1941081 1.347483,1.705062 -0.04912,1.4134413 -0.787775,1.4091215 -1.416121,1.4711485 -0.597266,-0.031581 -1.17165,-0.5321612 -1.209819,-1.5673973 0.02672,-1.0733131 0.551664,-1.5963284 1.278457,-1.6088132 z"/><rect style="opacity:1;fill:#1aa4e5;fill-opacity:1;stroke:#000;stroke-width:.09679542;stroke-linecap:round;stroke-linejoin:round;stroke-miterlimit:4;stroke-dasharray:none;stroke-dashoffset:0;stroke-opacity:1;paint-order:normal" id="rect838-3-2-3" width="8.712" height="8.712" x="106.135" y="28.98"/><circle style="opacity:1;fill:#00dfc3;fill-opacity:1;stroke:#000;stroke-width:.1308244;stroke-linecap:round;stroke-linejoin:round;stroke-miterlimit:4;stroke-dasharray:none;stroke-dashoffset:0;stroke-opacity:1;paint-order:normal" id="path846-5-6" cx="92.016" cy="28.266" r="7.022"/><rect style="opacity:1;fill:#00dfc3;fill-opacity:1;stroke:#000;stroke-width:.13162708;stroke-linecap:round;stroke-linejoin:round;stroke-miterlimit:4;stroke-dasharray:none;stroke-dashoffset:0;stroke-opacity:1;paint-order:normal" id="rect836-7" width="21.06" height="21.06" x="58.949" y="14.412"/><path style="opacity:1;fill:#00dfc3;fill-opacity:1;stroke:#000;stroke-width:.13162708;stroke-linecap:round;stroke-linejoin:round;stroke-miterlimit:4;stroke-dasharray:none;stroke-dashoffset:0;stroke-opacity:1;paint-order:normal" id="path844-5" d="m 99.694371,46.747743 a 11.188303,11.188303 0 0 1 -9.037295,12.834776 11.188303,11.188303 0 0 1 -12.975838,-8.833561 11.188303,11.188303 0 0 1 8.627626,-13.113666 11.188303,11.188303 0 0 1 13.248227,8.41954"/><circle style="opacity:1;fill:#1aa4e5;fill-opacity:1;stroke:#000;stroke-width:.13162708;stroke-linecap:round;stroke-linejoin:round;stroke-miterlimit:4;stroke-dasharray:none;stroke-dashoffset:0;stroke-opacity:1;paint-order:normal" id="path850-3" cx="74.695" cy="55.804" r="7.898"/><rect style="opacity:1;fill:#00dfc3;fill-opacity:1;stroke:#000;stroke-width:.14314619;stroke-linecap:round;stroke-linejoin:round;stroke-miterlimit:4;stroke-dasharray:none;stroke-dashoffset:0;stroke-opacity:1;paint-order:normal" id="rect842-5" width="14.315" height="14.315" x="57.068" y="42.809"/><rect style="opacity:1;fill:#1aa4e5;fill-opacity:1;stroke:#000;stroke-width:.10655855;stroke-linecap:round;stroke-linejoin:round;stroke-miterlimit:4;stroke-dasharray:none;stroke-dashoffset:0;stroke-opacity:1;paint-order:normal" id="rect838-3-6" width="9.59" height="9.59" x="93.593" y="53.261"/><ellipse style="opacity:1;fill:#1aa4e5;fill-opacity:1;stroke:#000;stroke-width:.0838074;stroke-linecap:round;stroke-linejoin:round;stroke-miterlimit:4;stroke-dasharray:none;stroke-dashoffset:0;stroke-opacity:1;paint-order:normal" id="path848-2" cx="82.549" cy="22.265" rx="6.266" ry="6.168"/><rect style="opacity:1;fill:#1aa4e5;fill-opacity:1;stroke:#000;stroke-width:.13162708;stroke-linecap:round;stroke-linejoin:round;stroke-miterlimit:4;stroke-dasharray:none;stroke-dashoffset:0;stroke-opacity:1;paint-order:normal" id="rect838-9" width="11.846" height="11.846" x="91.96" y="33.08"/><circle style="opacity:1;fill:#00dfc3;fill-opacity:1;stroke:#000;stroke-width:.09354054;stroke-linecap:round;stroke-linejoin:round;stroke-miterlimit:4;stroke-dasharray:none;stroke-dashoffset:0;stroke-opacity:1;paint-order:normal" id="path846-1" cx="105.622" cy="37.485" r="3.742"/><circle style="opacity:1;fill:#00dfc3;fill-opacity:1;stroke:#000;stroke-width:.1308244;stroke-linecap:round;stroke-linejoin:round;stroke-miterlimit:4;stroke-dasharray:none;stroke-dashoffset:0;stroke-opacity:1;paint-order:normal" id="path846-5-6-7" cx="115.852" cy="26.273" r="7.022"/><rect style="opacity:1;fill:#1aa4e5;fill-opacity:1;stroke:#000;stroke-width:.13162708;stroke-linecap:round;stroke-linejoin:round;stroke-miterlimit:4;stroke-dasharray:none;stroke-dashoffset:0;stroke-opacity:1;paint-order:normal" id="rect838-93" width="11.846" height="11.846" x="109.363" y="11.865"/><rect style="opacity:1;fill:#1aa4e5;fill-opacity:1;stroke:#000;stroke-width:.13162708;stroke-linecap:round;stroke-linejoin:round;stroke-miterlimit:4;stroke-dasharray:none;stroke-dashoffset:0;stroke-opacity:1;paint-order:normal" id="rect838-9-6" width="11.846" height="11.846" x="92.393" y="2.701"/><circle style="opacity:1;fill:#1aa4e5;fill-opacity:1;stroke:#000;stroke-width:.09063534;stroke-linecap:round;stroke-linejoin:round;stroke-miterlimit:4;stroke-dasharray:none;stroke-dashoffset:0;stroke-opacity:1;paint-order:normal" id="path850-3-6" cx="67.28" cy="12.652" r="5.438"/><circle style="opacity:1;fill:#00dfc3;fill-opacity:1;stroke:#000;stroke-width:.09354054;stroke-linecap:round;stroke-linejoin:round;stroke-miterlimit:4;stroke-dasharray:none;stroke-dashoffset:0;stroke-opacity:1;paint-order:normal" id="path846-2" cx="63.84" cy="7.292" r="3.742"/><rect style="opacity:1;fill:#00dfc3;fill-opacity:1;stroke:#000;stroke-width:.14314619;stroke-linecap:round;stroke-linejoin:round;stroke-miterlimit:4;stroke-dasharray:none;stroke-dashoffset:0;stroke-opacity:1;paint-order:normal" id="rect842-5-6" width="14.315" height="14.315" x="112.768" y="40.273"/><circle style="opacity:1;fill:#00dfc3;fill-opacity:1;stroke:#000;stroke-width:.09354054;stroke-linecap:round;stroke-linejoin:round;stroke-miterlimit:4;stroke-dasharray:none;stroke-dashoffset:0;stroke-opacity:1;paint-order:normal" id="path846-1-1" cx="104.086" cy="57.839" r="3.742"/><rect style="opacity:1;fill:#1aa4e5;fill-opacity:1;stroke:#000;stroke-width:.13162708;stroke-linecap:round;stroke-linejoin:round;stroke-miterlimit:4;stroke-dasharray:none;stroke-dashoffset:0;stroke-opacity:1;paint-order:normal" id="rect838-9-8" width="11.846" height="11.846" x="106.648" y="47.277"/></svg>