<svg xmlns="http://www.w3.org/2000/svg" xmlns:svg="http://www.w3.org/2000/svg" xmlns:xlink="http://www.w3.org/1999/xlink" id="svg4" width="500" height="500" preserveAspectRatio="xMidYMid" version="1.1" viewBox="0 0 51.2 51.194"><metadata id="metadata10"/><defs id="defs8"><linearGradient id="linearGradient8385"><stop offset="0" style="stop-color:#000;stop-opacity:1" id="stop8387"/><stop offset="1" style="stop-color:#fff;stop-opacity:1" id="stop8389"/></linearGradient><linearGradient id="linearGradient3002" x1="-553.27" x2="-666.116" y1="525.908" y2="413.045" gradientTransform="matrix(0.99884,0,0,0.998699,689.00774,-388.84375)" gradientUnits="userSpaceOnUse" xlink:href="#linearGradient8385"/><linearGradient id="linearGradient3005" x1="-666.117" x2="-553.27" y1="413.045" y2="525.908" gradientTransform="matrix(0.99884,0,0,0.998699,689.00774,-388.84375)" gradientUnits="userSpaceOnUse" xlink:href="#linearGradient8385"/></defs><rect style="opacity:1;fill:#fff;fill-opacity:1;stroke:#000;stroke-width:.08264428;stroke-linecap:round;stroke-linejoin:round;stroke-miterlimit:4;stroke-dasharray:none;stroke-dashoffset:0;stroke-opacity:1;paint-order:normal" id="rect852" width="49.069" height="49.069" x="1.065" y="1.062" ry="4.239"/><rect style="opacity:1;fill:#1aa4e5;fill-opacity:1;stroke:#000;stroke-width:.07530253;stroke-linecap:round;stroke-linejoin:round;stroke-miterlimit:4;stroke-dasharray:none;stroke-dashoffset:0;stroke-opacity:1;paint-order:normal" id="rect838-3-2" width="6.777" height="6.777" x="40.975" y="23.096"/><circle style="opacity:1;fill:#00dfc3;fill-opacity:1;stroke:#000;stroke-width:.10177556;stroke-linecap:round;stroke-linejoin:round;stroke-miterlimit:4;stroke-dasharray:none;stroke-dashoffset:0;stroke-opacity:1;paint-order:normal" id="path846-5" cx="37.473" cy="17.699" r="5.462"/><rect style="opacity:1;fill:#00dfc3;fill-opacity:1;stroke:#000;stroke-width:.1024;stroke-linecap:round;stroke-linejoin:round;stroke-miterlimit:4;stroke-dasharray:none;stroke-dashoffset:0;stroke-opacity:1;paint-order:normal" id="rect836" width="16.384" height="16.384" x="3.915" y="15.723"/><path style="opacity:1;fill:#00dfc3;fill-opacity:1;stroke:#000;stroke-width:.1024;stroke-linecap:round;stroke-linejoin:round;stroke-miterlimit:4;stroke-dasharray:none;stroke-dashoffset:0;stroke-opacity:1;paint-order:normal" id="path844" d="M 42.389908,37.006105 A 8.7040005,8.7040005 0 0 1 35.359296,46.990988 8.7040005,8.7040005 0 0 1 25.264674,40.118871 8.7040005,8.7040005 0 0 1 31.976581,29.917024 8.7040005,8.7040005 0 0 1 42.28311,36.467051"/><circle style="opacity:1;fill:#1aa4e5;fill-opacity:1;stroke:#000;stroke-width:.1024;stroke-linecap:round;stroke-linejoin:round;stroke-miterlimit:4;stroke-dasharray:none;stroke-dashoffset:0;stroke-opacity:1;paint-order:normal" id="path850" cx="17.044" cy="35.074" r="6.144"/><rect style="opacity:1;fill:#00dfc3;fill-opacity:1;stroke:#000;stroke-width:.11136135;stroke-linecap:round;stroke-linejoin:round;stroke-miterlimit:4;stroke-dasharray:none;stroke-dashoffset:0;stroke-opacity:1;paint-order:normal" id="rect842" width="11.136" height="11.136" x="4.74" y="36.671"/><rect style="opacity:1;fill:#1aa4e5;fill-opacity:1;stroke:#000;stroke-width:.08289779;stroke-linecap:round;stroke-linejoin:round;stroke-miterlimit:4;stroke-dasharray:none;stroke-dashoffset:0;stroke-opacity:1;paint-order:normal" id="rect838-3" width="7.461" height="7.461" x="38.963" y="39.785"/><ellipse style="opacity:1;fill:#1aa4e5;fill-opacity:1;stroke:#000;stroke-width:.06519842;stroke-linecap:round;stroke-linejoin:round;stroke-miterlimit:4;stroke-dasharray:none;stroke-dashoffset:0;stroke-opacity:1;paint-order:normal" id="path848" cx="12.329" cy="16.727" rx="4.875" ry="4.798"/><rect style="opacity:1;fill:#1aa4e5;fill-opacity:1;stroke:#000;stroke-width:.1024;stroke-linecap:round;stroke-linejoin:round;stroke-miterlimit:4;stroke-dasharray:none;stroke-dashoffset:0;stroke-opacity:1;paint-order:normal" id="rect838" width="9.216" height="9.216" x="28.804" y="18.452"/><circle style="opacity:1;fill:#00dfc3;fill-opacity:1;stroke:#000;stroke-width:.07277037;stroke-linecap:round;stroke-linejoin:round;stroke-miterlimit:4;stroke-dasharray:none;stroke-dashoffset:0;stroke-opacity:1;paint-order:normal" id="path846" cx="39.432" cy="25.927" r="2.911"/><rect style="opacity:1;fill:#c5b700;fill-opacity:1;stroke:#000;stroke-width:.08394087;stroke-linecap:round;stroke-linejoin:round;stroke-miterlimit:4;stroke-dasharray:none;stroke-dashoffset:0;stroke-opacity:1;paint-order:normal" id="rect840" width="14.225" height="14.044" x="17.765" y="20.39"/><path style="fill:#000;fill-opacity:1;fill-rule:evenodd;stroke:#000;stroke-width:.11040783px;stroke-linecap:butt;stroke-linejoin:miter;stroke-opacity:1" id="path922" d="m 23.7167,1.566099 -2.113275,0.04313 0.431281,1.099765 1.725122,0.452845 z m 13.885726,2.129232 c -0.752204,-0.02055 -1.563577,0.318378 -2.284278,1.1485 l -0.129385,-0.948817 -2.156402,-0.04313 0.08884,8.331479 2.120605,-0.0078 -0.0099,-3.062092 c 2.736654,2.350051 5.180733,0.01893 4.990132,-2.285788 0.03683,-1.743706 -1.183575,-3.093165 -2.619598,-3.132391 z m 8.684913,0.07418 c -0.99951,0.02518 -1.942302,0.502146 -2.214195,0.85868 l 0.04313,-0.776305 -2.199532,0.04313 -0.04313,8.280588 2.242659,-0.129383 -0.172512,-2.975838 C 47.001307,11.675489 49.209353,8.555652 49.119126,7.12962 48.951316,4.451634 47.572422,3.737137 46.287339,3.769513 Z m -17.39139,0.0069 c -2.827628,0.03775 -3.488021,2.092048 -3.508685,3.010123 -0.16648,3.616072 4.751701,3.762605 5.846441,2.924083 L 31.211065,8.256123 C 28.279415,9.491473 27.660258,7.977044 27.537201,6.9267 27.453831,6.016042 28.786461,4.18229 31.193167,5.635446 l 0.02544,-1.524361 C 30.316477,3.866243 29.548478,3.767701 28.895949,3.776411 Z M 8.5787523,3.851891 6.6811179,3.938151 5.6891726,7.949061 4.5678431,3.938151 2.4545682,3.895021 4.1796905,9.889821 6.5517338,9.846691 7.6730633,5.87891 8.7943915,9.932948 11.080179,9.846688 12.934684,3.981273 10.821411,3.938143 9.74321,7.905925 Z m 8.4619397,0.02264 c -1.846751,-0.01782 -2.743527,0.504871 -2.984677,1.400584 -0.544356,3.0693 4.15971,1.65887 4.01091,3.018964 -0.0801,0.332377 -0.463593,1.000489 -4.01091,0 l -0.04313,1.33697 c 2.692659,0.971881 5.789349,0.466036 6.037928,-1.164458 0.239144,-3.089663 -4.604264,-2.003582 -4.140293,-2.88958 0.250968,-0.846655 1.821312,-0.562418 3.665885,-0.04313 l 0.08626,-1.380098 C 18.631499,3.97127 17.763335,3.8815 17.040692,3.874528 Z m 4.605861,0.106742 0.04313,5.994802 c 0.03106,0.879252 -0.520698,1.175671 -1.466354,1.0782 v 1.164459 c 1.59368,0.179151 3.127064,0.23197 3.536501,-2.070147 l 0.04313,-6.167314 z m 23.958068,1.173514 c 0.454164,0.02419 1.235425,-0.06303 1.219878,2.043193 -0.05447,1.567535 -0.949979,1.410259 -1.555341,1.433304 -0.936846,-0.187503 -1.085974,-0.559715 -1.128303,-1.707815 0.02963,-1.190326 0.657739,-1.754836 1.463766,-1.768682 z m -9.011823,0.0052 c 0.454164,0.02419 1.509935,-0.21527 1.494387,1.89095 -0.05447,1.567536 -0.873658,1.562746 -1.570508,1.631535 -0.662381,-0.03502 -1.299385,-0.590178 -1.341715,-1.738277 0.02963,-1.190327 0.611808,-1.770362 1.417836,-1.784208 z"/></svg>